<?xml version="1.0" encoding="utf-8"?>
<!-- Generator: Adobe Illustrator 24.3.0, SVG Export Plug-In . SVG Version: 6.00 Build 0)  -->
<svg version="1.1" id="Layer_1" xmlns="http://www.w3.org/2000/svg" xmlns:xlink="http://www.w3.org/1999/xlink" x="0px" y="0px"
	 viewBox="0 0 150.27 150.27" style="enable-background:new 0 0 150.27 150.27;" xml:space="preserve">
<style type="text/css">
	.st0{fill:#F572FC;}
	.st1{fill:none;stroke:#5B554D;stroke-width:5;stroke-linejoin:round;stroke-miterlimit:10;}
	.st2{fill:#444444;}
</style>
<g>
	<g>
		<path class="st0" d="M146.64,3.64c3,48-1,95,0,143c-48,3-95-1-143,0c-3-48,1-95,0-143C51.64,0.64,98.64,4.64,146.64,3.64
			L146.64,3.64z"/>
		<path class="st1" d="M146.64,3.64c3,48-1,95,0,143c-48,3-95-1-143,0c-3-48,1-95,0-143C51.64,0.64,98.64,4.64,146.64,3.64
			L146.64,3.64z"/>
	</g>
</g>
<g id="XMLID_728_">
	<g id="XMLID_29_">
		<path id="XMLID_30_" class="st0" d="M107.86,46.93c-2.47-2.94-6.19-5.55-11.72-5.88c-13.28-0.79-34.89,0.4-34.89,0.4
			c-18.53,0.02-18.77,19.19-18.77,19.19c0.01,13.34-1.33,28.93,1.14,34.5c2.47,5.57,4.17,12.79,21.18,13.95
			c17.01,1.16,30.6-0.57,30.6-0.57s15.62-3.65,15.81-13.69c0.15-7.75,0.71-26.76,0.96-35.06C112.31,55.11,110.85,50.5,107.86,46.93z
			 M105.8,91.7c-0.16,8.45-13.3,11.52-13.3,11.52s-11.43,1.46-25.74,0.48c-14.31-0.97-15.74-7.04-17.81-11.73
			c-2.08-4.69-0.95-17.8-0.96-29.02c0,0,0.2-16.12,15.78-16.14c0,0,18.18-1,29.35-0.34c4.65,0.28,7.79,2.47,9.86,4.95
			c2.52,3,3.75,6.88,3.63,10.8C106.39,69.19,105.92,85.18,105.8,91.7z"/>
	</g>
	<g id="XMLID_715_">
		<path id="XMLID_28_" class="st0" d="M85.8,59.07c-7.85-2.79-15.67-2.68-20.77,0.99c-4.19,3.02-7.71,9.43-5.92,18.56
			c0,0,2.93,10.18,12.46,12.69c9.53,2.51,20.5-2.96,21.9-11.86C94.88,70.56,93.65,61.86,85.8,59.07z M87.12,77.63
			c-0.89,5.6-7.79,9.05-13.79,7.47c-6-1.58-7.85-7.99-7.85-7.99c-1.13-5.75,1.09-9.79,3.73-11.69c3.21-2.31,8.14-2.38,13.08-0.62
			C87.23,66.55,88,72.03,87.12,77.63z"/>
	</g>
	<g id="XMLID_714_">
		<path id="XMLID_27_" class="st0" d="M90.64,55.06c0,0,0.84-2.52,3.47-3c2.64-0.49,4.44,1.72,4.82,3c0.47,1.62-0.07,5.7-3.8,5.59
			C91.39,60.53,89.92,58.24,90.64,55.06z"/>
	</g>
	<g id="XMLID_722_">
		<path id="XMLID_58_" class="st2" d="M74.23,111.04c-3.69,0-7.75-0.11-12.01-0.4c-16.67-1.14-19.6-8.04-21.95-13.6
			c-0.18-0.43-0.36-0.85-0.55-1.27c-1.95-4.41-1.72-13.62-1.45-24.29c0.09-3.6,0.18-7.32,0.18-10.84c0-0.23,0.48-20.68,20.27-20.74
			c1.08-0.06,22.09-1.17,35.03-0.4c5.18,0.31,9.5,2.47,12.82,6.43v0c3.17,3.78,4.83,8.71,4.67,13.88
			c-0.24,7.95-0.82,27.27-0.96,35.04c-0.21,11.12-16.32,15.01-17.01,15.17c-0.05,0.01-0.1,0.02-0.16,0.03
			C93.01,110.07,85.25,111.04,74.23,111.04z M82.73,42.33c-11.56,0-23.71,0.66-23.87,0.67c-0.03,0-0.06,0-0.08,0
			c-7.05,0.01-12.08,2.95-14.95,8.74c-2.19,4.43-2.27,8.87-2.27,8.92c0,3.55-0.09,7.29-0.18,10.9c-0.24,9.43-0.48,19.18,1.19,22.95
			c0.19,0.43,0.38,0.87,0.57,1.32c2.23,5.26,4.53,10.71,19.31,11.71c15.98,1.09,29.05-0.41,30.22-0.56
			c1.11-0.28,14.39-3.8,14.55-12.2c0.15-7.78,0.72-27.12,0.96-35.07c0.13-4.41-1.27-8.6-3.95-11.8v0
			c-2.75-3.28-6.33-5.08-10.63-5.33C90.32,42.4,86.56,42.33,82.73,42.33z M74.43,105.58c-3.13,0-6.59-0.09-10.25-0.34
			C50,104.28,47.51,98.39,45.51,93.66c-0.15-0.36-0.3-0.72-0.46-1.06c-1.67-3.76-1.47-11.53-1.24-20.53
			c0.08-3.03,0.15-6.15,0.15-9.12c0-0.2,0.41-17.64,17.29-17.69c0.98-0.05,18.62-0.98,29.48-0.34c4.43,0.26,8.12,2.11,10.96,5.5
			c2.71,3.22,4.12,7.43,3.99,11.84c-0.2,6.69-0.69,22.96-0.81,29.47l0,0c-0.18,9.54-13.91,12.86-14.49,12.99
			c-0.05,0.01-0.1,0.02-0.16,0.03C89.87,104.79,83.53,105.58,74.43,105.58z M81.45,47.79c-9.72,0-19.93,0.55-20.06,0.56
			c-0.03,0-0.06,0-0.08,0c-5.83,0.01-9.98,2.44-12.35,7.22c-1.82,3.67-1.89,7.36-1.89,7.4c0,2.98-0.08,6.13-0.15,9.18
			c-0.2,7.9-0.41,16.07,0.98,19.2c0.16,0.36,0.32,0.73,0.48,1.11c1.84,4.36,3.75,8.87,16.03,9.7c13.36,0.91,24.29-0.34,25.35-0.46
			c1-0.25,11.9-3.17,12.03-10.02c0.12-6.53,0.61-22.81,0.81-29.5c0.11-3.65-1.05-7.12-3.27-9.76c-2.27-2.71-5.22-4.19-8.77-4.4
			C87.83,47.85,84.66,47.79,81.45,47.79z"/>
	</g>
	<g id="XMLID_723_">
		<path id="XMLID_53_" class="st2" d="M74.52,92.85c-1.7,0-3.4-0.21-5.04-0.64c-9.92-2.61-12.99-12.89-13.12-13.33
			c-0.01-0.03-0.01-0.05-0.02-0.08c-1.24-6.34-0.24-14.79,6.29-19.49c5.12-3.69,13.21-4.1,21.62-1.11
			c7.12,2.53,10.06,10.13,8.27,21.4c-0.63,3.96-3.06,7.5-6.86,9.98C82.38,91.73,78.44,92.85,74.52,92.85z M58.15,78.4
			c0.2,0.64,3.17,9.74,11.79,12.01c4.93,1.3,10.43,0.41,14.71-2.39c3.35-2.19,5.5-5.28,6.04-8.72c1.15-7.28,0.86-16.54-7.06-19.36
			l0,0c-7.84-2.79-15.29-2.46-19.92,0.87C59.91,63.56,56.45,69.62,58.15,78.4z M74.49,86.41c-1.1,0-2.2-0.14-3.26-0.42
			c-6.44-1.7-8.42-8.35-8.5-8.63c-0.01-0.03-0.01-0.05-0.02-0.08c-1.22-6.25,1.31-10.62,4.1-12.62c3.37-2.43,8.45-2.7,13.93-0.75
			c4.66,1.66,6.59,6.58,5.44,13.85c-0.41,2.59-2,4.91-4.47,6.52C79.58,85.68,77.03,86.41,74.49,86.41z M64.52,76.88
			c0.15,0.47,1.99,5.95,7.18,7.32c3.01,0.79,6.37,0.25,8.99-1.46c2.03-1.32,3.33-3.19,3.65-5.26c0.71-4.45,0.55-10.12-4.22-11.82
			c-4.83-1.72-9.4-1.53-12.23,0.5C65.58,67.83,63.49,71.52,64.52,76.88z"/>
	</g>
	<g id="XMLID_717_">
		<path id="XMLID_48_" class="st2" d="M93.42,61.26c-0.06,0-0.11,0-0.17,0c-1.96-0.06-3.47-0.7-4.36-1.85
			c-0.87-1.13-1.12-2.68-0.71-4.49c0-0.02,0.01-0.04,0.02-0.06c0.04-0.12,0.99-2.87,3.95-3.42c3.03-0.56,5.09,1.96,5.52,3.44
			c0.37,1.28,0.18,3.41-0.92,4.83C95.95,60.73,94.8,61.26,93.42,61.26z M89.38,55.23c-0.31,1.42-0.14,2.61,0.49,3.43
			c0.66,0.85,1.84,1.32,3.42,1.37c1.08,0.03,1.9-0.33,2.48-1.07c0.89-1.15,0.95-2.9,0.72-3.72c-0.31-1.07-1.88-2.98-4.11-2.57
			C90.24,53.05,89.47,54.97,89.38,55.23z"/>
	</g>
	<g id="XMLID_729_">
		<path id="XMLID_47_" class="st2" d="M88.24,100.81c-0.33,0-0.61-0.26-0.62-0.6c-0.01-0.34,0.25-0.63,0.6-0.64
			c0.07,0,6.83-0.33,10.66-7.05c0.17-0.3,0.55-0.4,0.84-0.23c0.3,0.17,0.4,0.55,0.23,0.84c-4.17,7.34-11.38,7.67-11.69,7.68
			C88.25,100.81,88.24,100.81,88.24,100.81z"/>
	</g>
	<g id="XMLID_730_">
		<path id="XMLID_46_" class="st2" d="M92.66,102.44c-0.24,0-0.48-0.15-0.57-0.39l-0.98-2.4c-0.13-0.32,0.02-0.68,0.34-0.81
			c0.32-0.13,0.68,0.02,0.81,0.34l0.98,2.4c0.13,0.32-0.02,0.68-0.34,0.81C92.81,102.42,92.74,102.44,92.66,102.44z"/>
	</g>
	<g id="XMLID_731_">
		<path id="XMLID_45_" class="st2" d="M96.18,100.81c-0.2,0-0.4-0.1-0.52-0.28l-1.49-2.28c-0.19-0.29-0.11-0.67,0.18-0.86
			c0.29-0.19,0.67-0.11,0.86,0.18l1.49,2.28c0.19,0.29,0.11,0.67-0.18,0.86C96.41,100.78,96.29,100.81,96.18,100.81z"/>
	</g>
	<g id="XMLID_732_">
		<path id="XMLID_44_" class="st2" d="M99.41,98.53c-0.13,0-0.27-0.04-0.38-0.13l-2.41-1.89c-0.27-0.21-0.31-0.6-0.1-0.87
			c0.21-0.27,0.6-0.31,0.87-0.1l2.41,1.89c0.27,0.21,0.31,0.6,0.1,0.87C99.77,98.45,99.59,98.53,99.41,98.53z"/>
	</g>
	<g id="XMLID_734_">
		<path id="XMLID_43_" class="st2" d="M70.12,51.4h-6.8c-0.34,0-0.62-0.28-0.62-0.62c0-0.34,0.28-0.62,0.62-0.62h6.8
			c0.34,0,0.62,0.28,0.62,0.62C70.74,51.13,70.46,51.4,70.12,51.4z"/>
	</g>
</g>
</svg>
