<?xml version="1.0" encoding="utf-8"?>
<!-- Generator: Adobe Illustrator 24.3.0, SVG Export Plug-In . SVG Version: 6.00 Build 0)  -->
<svg version="1.1" id="Layer_1" xmlns="http://www.w3.org/2000/svg" xmlns:xlink="http://www.w3.org/1999/xlink" x="0px" y="0px"
	 viewBox="0 0 150.27 150.27" style="enable-background:new 0 0 150.27 150.27;" xml:space="preserve">
<style type="text/css">
	.st0{fill:#75B9FC;}
	.st1{fill:none;stroke:#5B554D;stroke-width:5;stroke-linejoin:round;stroke-miterlimit:10;}
	.st2{fill:#444444;}
	.st3{fill:#F4F7FC;}
	.st4{fill:#C6D8E8;}
	.st5{fill:#A8C8DD;}
</style>
<g>
	<g>
		<path class="st0" d="M146.64,3.64c3,48-1,95,0,143c-48,3-95-1-143,0c-3-48,1-95,0-143C51.64,0.64,98.64,4.64,146.64,3.64
			L146.64,3.64z"/>
		<path class="st1" d="M146.64,3.64c3,48-1,95,0,143c-48,3-95-1-143,0c-3-48,1-95,0-143C51.64,0.64,98.64,4.64,146.64,3.64
			L146.64,3.64z"/>
	</g>
</g>
<g id="XMLID_26_">
	<g id="XMLID_1_">
		<g id="XMLID_23_">
			<path id="XMLID_25_" class="st0" d="M77.22,109.57c0,0,27.36-0.39,33.74-26.69c6.38-26.31-16.44-41.2-28.82-42.17
				c-12.38-0.97-34.24,3.09-38.88,27.08C38.63,91.77,56.63,109.37,77.22,109.57z"/>
		</g>
		<g id="XMLID_19_">
			<path id="XMLID_20_" class="st2" d="M74.16,110.91c0,0-0.01,0-0.01,0c-11.07-0.1-21.32-4.95-28.15-13.3
				c-6.7-8.2-9.2-18.85-7.05-29.99c4.4-22.72,24.43-29.34,40.23-28.11c6.92,0.54,17.49,5.37,24.37,14.7
				c4.24,5.75,8.66,15.46,5.59,29.02c-3.23,14.31-12.59,21.08-19.87,24.24C81.45,110.87,74.46,110.91,74.16,110.91z M75.77,41.93
				c-4.53,0-11.65,0.68-18.44,4.17c-8.55,4.38-13.89,11.79-15.87,22c-2.01,10.38,0.31,20.29,6.52,27.9
				c6.34,7.76,15.89,12.27,26.19,12.37c0.22,0,6.91-0.09,14.18-3.27c9.75-4.26,15.92-11.81,18.32-22.43
				c2.85-12.62-1.23-21.61-5.16-26.94c-6.4-8.69-16.16-13.18-22.52-13.67C78.18,41.98,77.08,41.93,75.77,41.93z"/>
		</g>
		<g id="XMLID_17_">
			<path id="XMLID_18_" class="st2" d="M84.16,104.94c-0.22,0-0.42-0.14-0.49-0.37c-0.08-0.27,0.08-0.55,0.35-0.63
				c12.86-3.74,17.62-14.67,17.67-14.78c0.11-0.26,0.41-0.38,0.67-0.27c0.26,0.11,0.38,0.41,0.27,0.67
				c-0.05,0.11-4.98,11.48-18.32,15.36C84.25,104.94,84.2,104.94,84.16,104.94z"/>
		</g>
		<g id="XMLID_15_">
			<path id="XMLID_16_" class="st2" d="M90.32,105.87c-0.15,0-0.3-0.07-0.4-0.19l-1.97-2.5c-0.17-0.22-0.14-0.54,0.08-0.72
				c0.22-0.17,0.54-0.14,0.72,0.08l1.97,2.5c0.17,0.22,0.14,0.54-0.08,0.72C90.54,105.83,90.43,105.87,90.32,105.87z"/>
		</g>
		<g id="XMLID_13_">
			<path id="XMLID_14_" class="st2" d="M92.05,104.94c-0.15,0-0.29-0.06-0.4-0.19l-1.73-2.12c-0.18-0.22-0.15-0.54,0.07-0.72
				c0.22-0.18,0.54-0.15,0.72,0.07l1.73,2.12c0.18,0.22,0.15,0.54-0.07,0.72C92.28,104.91,92.16,104.94,92.05,104.94z"/>
		</g>
		<g id="XMLID_11_">
			<path id="XMLID_12_" class="st2" d="M94.06,103.37c-0.15,0-0.29-0.06-0.39-0.19l-1.8-2.2c-0.18-0.22-0.15-0.54,0.07-0.72
				c0.22-0.18,0.54-0.15,0.72,0.07l1.8,2.2c0.18,0.22,0.15,0.54-0.07,0.72C94.29,103.33,94.18,103.37,94.06,103.37z"/>
		</g>
		<g id="XMLID_9_">
			<path id="XMLID_10_" class="st2" d="M99.89,98.78c-0.12,0-0.25-0.04-0.35-0.13l-2.35-2.16c-0.21-0.19-0.22-0.51-0.03-0.72
				c0.19-0.21,0.51-0.22,0.72-0.03l2.35,2.16c0.21,0.19,0.22,0.51,0.03,0.72C100.16,98.72,100.03,98.78,99.89,98.78z"/>
		</g>
		<g id="XMLID_7_">
			<path id="XMLID_8_" class="st2" d="M101.5,96.62c-0.11,0-0.22-0.03-0.31-0.1l-2.26-1.73c-0.22-0.17-0.27-0.49-0.1-0.71
				c0.17-0.22,0.49-0.27,0.71-0.1l2.26,1.73c0.22,0.17,0.27,0.49,0.1,0.71C101.81,96.55,101.66,96.62,101.5,96.62z"/>
		</g>
		<g id="XMLID_4_">
			<path id="XMLID_5_" class="st2" d="M44.51,63.12c-0.07,0-0.13-0.01-0.19-0.04c-0.26-0.11-0.38-0.41-0.28-0.67
				c0.17-0.4,4.14-9.89,10.99-13.16c0.25-0.12,0.56-0.01,0.68,0.24c0.12,0.25,0.01,0.56-0.24,0.68c-6.5,3.1-10.45,12.53-10.49,12.62
				C44.9,63.01,44.71,63.12,44.51,63.12z"/>
		</g>
	</g>
	<g id="XMLID_3_">
		<g id="XMLID_231_">
			<path id="XMLID_304_" class="st3" d="M51.27,76.51c-0.63-0.2-1.05-0.81-1-1.47c0.03-0.41,0.18-0.81,0.59-0.96
				c0.99-0.36,38.18-14.55,38.18-14.55s2.61-0.81,2.79,1.26C92,62.85,84.91,93.4,84.91,93.4s-1.26,1.62-3.5,0
				c-2.25-1.62-8.98-6.74-8.98-6.74l-6.02,5.57c0,0-1.35,0.36-2.07-2.07c-0.72-2.43-3.59-10.6-3.59-10.6L51.27,76.51z"/>
		</g>
		<g id="XMLID_230_">
			<polygon id="XMLID_302_" class="st4" points="61.17,79.13 65.23,91.6 66.18,91.6 66.18,82.05 83.08,66.9 82.49,66.47 			"/>
		</g>
		<g id="XMLID_229_">
			<polygon id="XMLID_300_" class="st5" points="66.48,82.08 66.71,90.88 67.19,90.88 71.92,86.73 71.92,85.88 			"/>
		</g>
		<g id="XMLID_286_">
			<path id="XMLID_303_" class="st2" d="M92.51,60.31c-0.08-0.89-0.52-1.36-0.88-1.6c-1.05-0.7-2.56-0.26-2.77-0.19
				c-0.37,0.14-37.2,14.2-38.17,14.55c-0.34,0.12-0.93,0.49-1.01,1.5c-0.08,0.96,0.52,1.83,1.44,2.13l9.17,2.95
				c0.52,1.49,2.85,8.15,3.48,10.27c0.88,2.99,2.76,2.52,2.84,2.5c0.1-0.03,0.19-0.08,0.27-0.15l5.63-5.21
				c1.52,1.15,6.67,5.06,8.57,6.42c0.86,0.62,1.63,0.84,2.29,0.84c1.01,0,1.75-0.53,2.09-0.97c0.06-0.07,0.1-0.16,0.12-0.25
				C86.31,89.98,92.69,62.41,92.51,60.31z M64.99,89.56c-0.65-2.18-2.98-8.85-3.5-10.34l20.68-12.28L66.1,81.46
				c-0.09,0.08-0.14,0.2-0.14,0.32l0.06,9.36C65.74,91.02,65.32,90.65,64.99,89.56z M66.84,87.12l2.95-2.3
				c0.04-0.03,0.07-0.07,0.09-0.11l0.67,0.49l-3.71,2.95L66.84,87.12z M66.84,86.05l-0.01-1.31l1.77-0.97l0.6,0.44L66.84,86.05z
				 M66.82,83.77l-0.01-1.32l1.03,0.76L66.82,83.77z M66.87,90.55l-0.01-1.32l4.41-3.51l0.45,0.33L66.87,90.55z M84.37,92.67
				c-0.25,0.24-1.1,0.83-2.55-0.21c-2.21-1.59-8.9-6.68-8.97-6.73c-0.09-0.07-0.19-0.1-0.3-0.12l-5.4-3.97l18.76-16.93
				c0.16-0.15,0.19-0.39,0.06-0.57c-0.13-0.18-0.37-0.22-0.56-0.11l-24.43,14.5l-9.47-3.05c-0.35-0.11-0.59-0.46-0.56-0.82
				c0.02-0.24,0.08-0.37,0.17-0.41c0.98-0.36,36.67-13.98,38.15-14.54c0.28-0.09,1.19-0.26,1.65,0.05c0.12,0.08,0.28,0.23,0.31,0.65
				C91.36,61.85,87.21,80.43,84.37,92.67z"/>
			<path id="XMLID_310_" class="st2" d="M85.13,81.84c-0.23-0.05-0.46,0.09-0.51,0.32l-0.38,1.67c-0.05,0.23,0.09,0.46,0.32,0.51
				c0.03,0.01,0.06,0.01,0.1,0.01c0.19,0,0.37-0.13,0.41-0.33l0.38-1.67C85.5,82.12,85.35,81.9,85.13,81.84z"/>
			<path id="XMLID_311_" class="st2" d="M86.49,75.91c-0.23-0.05-0.46,0.09-0.51,0.32L85,80.51c-0.05,0.23,0.09,0.46,0.32,0.51
				c0.03,0.01,0.06,0.01,0.1,0.01c0.19,0,0.37-0.13,0.41-0.33l0.99-4.28C86.87,76.19,86.72,75.96,86.49,75.91z"/>
			<path id="XMLID_312_" class="st2" d="M66.84,77.12c-0.13-0.19-0.4-0.24-0.59-0.1l-3.39,2.37c-0.19,0.13-0.24,0.4-0.1,0.59
				c0.08,0.12,0.21,0.18,0.35,0.18c0.08,0,0.17-0.02,0.24-0.08l3.39-2.37C66.93,77.58,66.98,77.32,66.84,77.12z"/>
		</g>
	</g>
</g>
</svg>
