<?xml version="1.0" encoding="utf-8"?>
<!-- Generator: Adobe Illustrator 24.3.0, SVG Export Plug-In . SVG Version: 6.00 Build 0)  -->
<svg version="1.1" id="Layer_1" xmlns="http://www.w3.org/2000/svg" xmlns:xlink="http://www.w3.org/1999/xlink" x="0px" y="0px"
	 viewBox="0 0 150.27 150.27" style="enable-background:new 0 0 150.27 150.27;" xml:space="preserve">
<style type="text/css">
	.st0{fill:#75B9FC;}
	.st1{fill:none;stroke:#5B554D;stroke-width:5;stroke-linejoin:round;stroke-miterlimit:10;}
	.st2{fill:#444444;}
</style>
<g>
	<g>
		<path class="st0" d="M146.64,3.64c3,48-1,95,0,143c-48,3-95-1-143,0c-3-48,1-95,0-143C51.64,0.64,98.64,4.64,146.64,3.64
			L146.64,3.64z"/>
		<path class="st1" d="M146.64,3.64c3,48-1,95,0,143c-48,3-95-1-143,0c-3-48,1-95,0-143C51.64,0.64,98.64,4.64,146.64,3.64
			L146.64,3.64z"/>
	</g>
</g>
<g id="XMLID_737_">
	<g id="XMLID_736_">
		<path id="XMLID_6_" class="st0" d="M36.85,101.11c0,0,11.59,9.35,32.3,7.43c20.71-1.93,34.65-23.1,34.65-23.1
			s8.76-11.16,6.61-26.53c0,0,8.34-7.69,8.67-9.48c-3.09,1.5-9.73,2.85-9.73,2.85s7.29-5.73,7.2-9.75
			c-2.96,1.99-10.77,4.41-10.77,4.41s-5.99-7.87-15.62-4.87c-9.63,3.01-16.42,11.92-12.59,20.61c-7.1-1.06-22.05-2.31-35.27-17.84
			c-4.31,6.69-1.49,18.63,5.03,22.44c-5.57,0.07-7.39-1.92-7.39-1.92s-1.15,13.07,13.4,16.63c-5.75,1.47-7.5,0.34-7.5,0.34
			s3.29,11.27,15.65,11.72C53.69,100.6,36.85,101.11,36.85,101.11z"/>
	</g>
	<g id="XMLID_735_">
		<path id="XMLID_158_" class="st2" d="M59.63,110.55c-17.55,0-27.33-7.71-27.78-8.08c-0.57-0.46-0.79-1.22-0.56-1.92
			c0.23-0.69,0.87-1.17,1.6-1.19c0.14,0,11.92-0.42,19.86-4.32c-9.62-2.75-12.48-12.13-12.51-12.24c-0.22-0.75-0.02-1.62,0.64-2.04
			c0.26-0.17,0.54-0.27,0.82-0.3c-6.36-4.44-7.75-11.42-7.41-15.28c0.06-0.71,0.51-1.36,1.2-1.57c0.67-0.2,1.37-0.03,1.81,0.51
			c0.08,0.07,0.36,0.29,0.93,0.54c-1.36-1.94-2.4-4.3-3.03-6.92c-1.22-5.11-0.58-10.29,1.72-13.87c0.3-0.47,0.8-0.76,1.35-0.8
			c0.55-0.03,1.09,0.19,1.45,0.61C50.97,56.92,63.6,59.42,71.12,60.53c-0.64-2.98-0.3-6.03,1.04-8.97
			c2.31-5.07,7.37-9.25,13.55-11.18c7.7-2.4,13.87,1.48,16.72,4.52c2.61-0.86,7.29-2.54,9.23-3.84c0.53-0.36,1.21-0.39,1.78-0.1
			c0.57,0.29,0.93,0.88,0.94,1.51c0.01,0.58-0.14,2.98-2.99,6.48c1.13-0.35,2.21-0.73,3.01-1.12c0.59-0.29,1.3-0.22,1.82,0.18
			c0.52,0.4,0.78,1.06,0.66,1.71c-0.34,1.86-4.68,6.25-8.54,9.84c1.73,15.04-6.27,25.88-7.03,26.88c-1,1.5-14.95,21.87-35.91,23.82
			C63.39,110.46,61.46,110.55,59.63,110.55z M38.47,102.4c1.04,0.51,2.25,1.05,3.63,1.57c4.81,1.82,12.69,3.78,22.97,2.82
			c19.64-1.83,33.22-22.12,33.35-22.32c0.03-0.04,0.05-0.08,0.08-0.12c0.08-0.1,8.27-10.8,6.25-25.21
			c-0.08-0.57,0.12-1.14,0.55-1.53c1.61-1.49,3.33-3.16,4.78-4.65c-2.25,0.6-4.17,0.99-4.31,1.02c-0.79,0.16-1.59-0.24-1.93-0.98
			c-0.34-0.73-0.13-1.61,0.5-2.11c1.53-1.2,3.39-2.98,4.74-4.7c-3.17,1.3-6.5,2.33-6.71,2.4c-0.7,0.22-1.46-0.03-1.91-0.61
			c-0.21-0.28-5.41-6.85-13.71-4.26c-5.25,1.64-9.51,5.11-11.41,9.29c-1.34,2.95-1.38,6.04-0.1,8.95c0.26,0.58,0.18,1.26-0.21,1.77
			c-0.39,0.51-1.02,0.76-1.65,0.67c-0.42-0.06-0.88-0.13-1.36-0.2c-7.38-1.05-20.84-2.96-33.22-16.26c-0.9,2.58-0.99,5.78-0.22,9
			c0.96,3.99,3.09,7.29,5.71,8.81c0.68,0.4,1.01,1.2,0.81,1.96c-0.2,0.76-0.88,1.29-1.67,1.3c-2.38,0.03-4.18-0.29-5.51-0.71
			c0.58,3.64,2.91,9.78,11.91,11.98c0.78,0.19,1.33,0.89,1.33,1.69c0,0.8-0.54,1.5-1.31,1.7c-2.13,0.55-3.79,0.77-5.07,0.81
			c1.69,3.01,5.46,7.55,12.86,7.82c0.72,0.03,1.35,0.49,1.59,1.18c0.24,0.68,0.03,1.44-0.53,1.91
			C53.35,99.87,44.29,101.68,38.47,102.4z"/>
	</g>
	<g id="XMLID_741_">
		<path id="XMLID_157_" class="st2" d="M59.76,72.95c-0.04,0-0.08,0-0.12-0.01c-3.97-0.71-11.26-3.31-11.57-3.42
			c-0.36-0.13-0.55-0.53-0.42-0.89c0.13-0.36,0.53-0.55,0.89-0.42c0.07,0.03,7.48,2.67,11.34,3.36c0.38,0.07,0.63,0.43,0.57,0.81
			C60.39,72.72,60.09,72.95,59.76,72.95z"/>
	</g>
	<g id="XMLID_742_">
		<path id="XMLID_156_" class="st2" d="M59.76,83.28h-6.93c-0.39,0-0.7-0.31-0.7-0.7c0-0.39,0.31-0.7,0.7-0.7h6.93
			c0.39,0,0.7,0.31,0.7,0.7C60.46,82.96,60.15,83.28,59.76,83.28z"/>
	</g>
	<g id="XMLID_743_">
		<path id="XMLID_155_" class="st2" d="M74.85,65.64c-0.39,0-0.76-0.22-0.94-0.59l-1.21-2.48c-0.25-0.52-0.04-1.15,0.48-1.4
			c0.52-0.25,1.15-0.04,1.4,0.48l1.21,2.48c0.25,0.52,0.04,1.15-0.48,1.4C75.16,65.61,75.01,65.64,74.85,65.64z"/>
	</g>
	<g id="XMLID_744_">
		<path id="XMLID_154_" class="st2" d="M57.35,95.63c-0.33,0-0.65-0.15-0.85-0.44c-0.34-0.47-0.23-1.13,0.24-1.46l3.28-2.36
			c0.47-0.34,1.13-0.23,1.46,0.24c0.34,0.47,0.23,1.13-0.24,1.46l-3.28,2.36C57.77,95.57,57.56,95.63,57.35,95.63z"/>
	</g>
	<g id="XMLID_738_">
		<path id="XMLID_153_" class="st2" d="M83.19,101.69c-0.21,0-0.42-0.1-0.56-0.28l-2.13-2.8c-0.23-0.31-0.17-0.75,0.13-0.98
			c0.31-0.23,0.75-0.17,0.98,0.13l2.13,2.8c0.23,0.31,0.17,0.75-0.13,0.98C83.48,101.64,83.33,101.69,83.19,101.69z"/>
	</g>
	<g id="XMLID_739_">
		<path id="XMLID_152_" class="st2" d="M87.31,99.53c-0.2,0-0.39-0.08-0.53-0.25l-2.56-3c-0.25-0.29-0.22-0.74,0.08-0.99
			c0.29-0.25,0.74-0.21,0.99,0.08l2.56,3c0.25,0.29,0.22,0.74-0.08,0.99C87.63,99.48,87.47,99.53,87.31,99.53z"/>
	</g>
	<g id="XMLID_740_">
		<path id="XMLID_151_" class="st2" d="M89.92,97.32c-0.18,0-0.36-0.07-0.49-0.2l-2.61-2.58c-0.27-0.27-0.28-0.71-0.01-0.99
			c0.27-0.28,0.71-0.28,0.99-0.01l2.61,2.58c0.27,0.27,0.28,0.71,0.01,0.99C90.29,97.25,90.11,97.32,89.92,97.32z"/>
	</g>
</g>
</svg>
