<?xml version="1.0" encoding="utf-8"?>
<!-- Generator: Adobe Illustrator 24.3.0, SVG Export Plug-In . SVG Version: 6.00 Build 0)  -->
<svg version="1.1" id="Layer_1" xmlns="http://www.w3.org/2000/svg" xmlns:xlink="http://www.w3.org/1999/xlink" x="0px" y="0px"
	 viewBox="0 0 150.27 150.27" style="enable-background:new 0 0 150.27 150.27;" xml:space="preserve">
<style type="text/css">
	.st0{fill:#F9524E;}
	.st1{fill:none;stroke:#5B554D;stroke-width:5;stroke-linejoin:round;stroke-miterlimit:10;}
	.st2{fill:#FFFFFF;}
	.st3{fill:#444444;}
</style>
<g>
	<g>
		<g>
			<path class="st0" d="M146.64,3.64c3,48-1,95,0,143c-48,3-95-1-143,0c-3-48,1-95,0-143C51.64,0.64,98.64,4.64,146.64,3.64
				L146.64,3.64z"/>
			<path class="st1" d="M146.64,3.64c3,48-1,95,0,143c-48,3-95-1-143,0c-3-48,1-95,0-143C51.64,0.64,98.64,4.64,146.64,3.64
				L146.64,3.64z"/>
		</g>
	</g>
	<g id="XMLID_694_">
		<g id="XMLID_34_">
			<path id="XMLID_35_" class="st0" d="M28.71,88.91c0,0,0.95,17.93,13.27,18.98c15.47,1.33,64.01,1.85,73.75,0
				c9.74-1.85,9.92-15.67,10.31-21.9c0.26-4.02,3.02-32.2-4.77-39.59c-6.17-5.85-18.82-5.21-21.17-5.21s-51.74,0-51.74,0
				S33.14,41.9,30.06,51.61C26.71,62.15,28.71,88.91,28.71,88.91z"/>
		</g>
		<g id="XMLID_693_">
			<polygon id="XMLID_33_" class="st2" points="59.72,90.51 91.47,75.79 59.72,59.75 			"/>
		</g>
		<g id="XMLID_675_">
			<path id="XMLID_186_" class="st3" d="M81.42,110.62c-16.22,0-34.04-0.48-42.61-1.22c-5.66-0.49-10-4.24-12.55-10.86
				c-1.8-4.68-2.09-9.18-2.11-9.54c-0.1-1.3-1.97-27.2,1.41-37.85c3.36-10.6,19.03-11.44,19.69-11.48c0.02,0,0.05,0,0.07,0h51.74
				c0.16,0,0.37,0,0.63-0.01c3.81-0.06,15.41-0.23,21.58,5.63c5.15,4.89,6.94,18.21,5.33,39.61c-0.04,0.5-0.07,0.9-0.09,1.18
				c-0.02,0.37-0.05,0.77-0.07,1.19c-0.4,7.04-1.15,20.15-11.48,22.11C108.36,110.26,95.49,110.62,81.42,110.62z M27.19,88.82
				c0.01,0.17,1.04,16.62,11.88,17.55c15.47,1.33,63.81,1.83,73.34,0.02c7.99-1.52,8.65-13.08,9.01-19.29
				c0.02-0.43,0.05-0.83,0.07-1.21c0.02-0.29,0.05-0.7,0.09-1.22c1.92-25.46-1.32-34.27-4.39-37.17c-3.5-3.32-10.03-4.94-19.44-4.8
				c-0.28,0-0.5,0.01-0.68,0.01h-51.7c-0.73,0.04-14.24,0.97-16.9,9.35c-3.22,10.14-1.3,36.46-1.28,36.72
				C27.19,88.8,27.19,88.81,27.19,88.82L27.19,88.82z"/>
		</g>
		<g id="XMLID_677_">
			<path id="XMLID_183_" class="st3" d="M59.72,91.42c-0.17,0-0.34-0.05-0.49-0.14c-0.26-0.17-0.42-0.46-0.42-0.77V59.75
				c0-0.32,0.16-0.61,0.43-0.78c0.27-0.17,0.61-0.18,0.89-0.04l31.74,16.04c0.31,0.16,0.51,0.48,0.5,0.83
				c-0.01,0.35-0.21,0.67-0.53,0.81L60.11,91.34C59.99,91.4,59.86,91.42,59.72,91.42z M60.64,61.23v27.85l28.74-13.33L60.64,61.23z"
				/>
		</g>
		<g id="XMLID_678_">
			<path id="XMLID_182_" class="st3" d="M105.88,109.18c-0.33,0-0.6-0.26-0.61-0.59c-0.01-0.34,0.25-0.62,0.59-0.63
				c10.47-0.38,12.05-13.95,12.06-14.09c0.04-0.33,0.33-0.58,0.67-0.54c0.33,0.04,0.58,0.34,0.54,0.67
				c-0.02,0.15-1.7,14.76-13.23,15.17C105.89,109.18,105.89,109.18,105.88,109.18z"/>
		</g>
		<g id="XMLID_679_">
			<path id="XMLID_181_" class="st3" d="M116.88,106.61c-0.1,0-0.2-0.03-0.3-0.08l-2.68-1.52c-0.29-0.17-0.4-0.54-0.23-0.83
				c0.17-0.29,0.54-0.39,0.83-0.23l2.68,1.52c0.29,0.17,0.4,0.54,0.23,0.83C117.3,106.5,117.09,106.61,116.88,106.61z"/>
		</g>
		<g id="XMLID_680_">
			<path id="XMLID_180_" class="st3" d="M118.22,104.86c-0.1,0-0.2-0.03-0.3-0.08l-2.68-1.52c-0.29-0.17-0.4-0.54-0.23-0.83
				c0.17-0.29,0.54-0.4,0.83-0.23l2.68,1.52c0.29,0.17,0.4,0.54,0.23,0.83C118.64,104.75,118.43,104.86,118.22,104.86z"/>
		</g>
		<g id="XMLID_681_">
			<path id="XMLID_179_" class="st3" d="M119.56,102.62c-0.1,0-0.2-0.03-0.3-0.08l-2.68-1.52c-0.29-0.17-0.4-0.54-0.23-0.83
				c0.17-0.29,0.54-0.4,0.83-0.23l2.68,1.52c0.29,0.17,0.4,0.54,0.23,0.83C119.98,102.51,119.77,102.62,119.56,102.62z"/>
		</g>
		<g id="XMLID_682_">
			<path id="XMLID_178_" class="st3" d="M120.67,100.55c-0.1,0-0.2-0.03-0.3-0.08l-2.68-1.52c-0.29-0.17-0.4-0.54-0.23-0.83
				c0.17-0.29,0.54-0.39,0.83-0.23l2.68,1.52c0.29,0.17,0.4,0.54,0.23,0.83C121.08,100.44,120.88,100.55,120.67,100.55z"/>
		</g>
		<g id="XMLID_683_">
			<path id="XMLID_171_" class="st3" d="M121.44,97.69c-0.1,0-0.2-0.03-0.3-0.08l-2.68-1.52c-0.29-0.17-0.4-0.54-0.23-0.83
				c0.17-0.29,0.54-0.39,0.83-0.23l2.68,1.52c0.29,0.17,0.4,0.54,0.23,0.83C121.86,97.58,121.65,97.69,121.44,97.69z"/>
		</g>
		<g id="XMLID_684_">
			<path id="XMLID_170_" class="st3" d="M59.73,87.63c-0.23,0-0.46-0.13-0.56-0.36c-0.14-0.31,0-0.67,0.31-0.8l12.79-5.68
				c0.31-0.14,0.67,0,0.8,0.31c0.14,0.31,0,0.67-0.31,0.8l-12.79,5.68C59.89,87.61,59.81,87.63,59.73,87.63z"/>
		</g>
		<g id="XMLID_685_">
			<path id="XMLID_169_" class="st3" d="M29.39,86.82c-0.29,0-0.55-0.21-0.6-0.5c-2-11.43-0.03-31.95-0.01-32.15
				c0.03-0.33,0.33-0.58,0.67-0.55c0.33,0.03,0.58,0.33,0.55,0.67c-0.02,0.2-1.98,20.56-0.01,31.82c0.06,0.33-0.16,0.65-0.49,0.7
				C29.46,86.82,29.42,86.82,29.39,86.82z"/>
		</g>
		<g id="XMLID_686_">
			<path id="XMLID_168_" class="st3" d="M29,59.66h-3.37c-0.34,0-0.61-0.27-0.61-0.61c0-0.34,0.27-0.61,0.61-0.61H29
				c0.34,0,0.61,0.27,0.61,0.61C29.61,59.38,29.34,59.66,29,59.66z"/>
		</g>
		<g id="XMLID_687_">
			<path id="XMLID_167_" class="st3" d="M28.39,62.35h-2.76c-0.34,0-0.61-0.27-0.61-0.61c0-0.34,0.27-0.61,0.61-0.61h2.76
				c0.34,0,0.61,0.27,0.61,0.61C29,62.08,28.73,62.35,28.39,62.35z"/>
		</g>
		<g id="XMLID_688_">
			<path id="XMLID_166_" class="st3" d="M28.39,65.04h-2.76c-0.34,0-0.61-0.27-0.61-0.61c0-0.34,0.27-0.61,0.61-0.61h2.76
				c0.34,0,0.61,0.27,0.61,0.61C29,64.77,28.73,65.04,28.39,65.04z"/>
		</g>
		<g id="XMLID_689_">
			<path id="XMLID_165_" class="st3" d="M28.39,67.73h-2.76c-0.34,0-0.61-0.27-0.61-0.61c0-0.34,0.27-0.61,0.61-0.61h2.76
				c0.34,0,0.61,0.27,0.61,0.61C29,67.46,28.73,67.73,28.39,67.73z"/>
		</g>
		<g id="XMLID_690_">
			<path id="XMLID_164_" class="st3" d="M28.39,77.07h-2.76c-0.34,0-0.61-0.27-0.61-0.61c0-0.34,0.27-0.61,0.61-0.61h2.76
				c0.34,0,0.61,0.27,0.61,0.61C29,76.8,28.73,77.07,28.39,77.07z"/>
		</g>
		<g id="XMLID_691_">
			<path id="XMLID_163_" class="st3" d="M28.39,79.61h-2.76c-0.34,0-0.61-0.27-0.61-0.61c0-0.34,0.27-0.61,0.61-0.61h2.76
				c0.34,0,0.61,0.27,0.61,0.61C29,79.34,28.73,79.61,28.39,79.61z"/>
		</g>
		<g id="XMLID_692_">
			<path id="XMLID_162_" class="st3" d="M113.22,47.51c-0.13,0-0.26-0.04-0.37-0.13c-3.53-2.73-12.97-2.26-13.06-2.26
				c-0.35,0.01-0.62-0.24-0.64-0.58c-0.02-0.34,0.24-0.62,0.58-0.64c0.41-0.02,9.99-0.49,13.87,2.51c0.27,0.21,0.31,0.59,0.11,0.85
				C113.59,47.43,113.41,47.51,113.22,47.51z"/>
		</g>
		<g id="XMLID_696_">
			<path id="XMLID_161_" class="st3" d="M119.56,70.33c-0.01,0-0.03,0-0.04,0c-0.34-0.02-0.59-0.31-0.57-0.65
				c0.3-4.71-0.77-10.17-0.78-10.22c-0.07-0.33,0.15-0.65,0.48-0.72c0.33-0.07,0.65,0.15,0.72,0.48c0.05,0.23,1.12,5.66,0.81,10.54
				C120.14,70.08,119.88,70.33,119.56,70.33z"/>
		</g>
	</g>
</g>
</svg>
