<?xml version="1.0" encoding="utf-8"?>
<!-- Generator: Adobe Illustrator 24.3.0, SVG Export Plug-In . SVG Version: 6.00 Build 0)  -->
<svg version="1.1" id="Layer_1" xmlns="http://www.w3.org/2000/svg" xmlns:xlink="http://www.w3.org/1999/xlink" x="0px" y="0px"
	 viewBox="0 0 101 88" style="enable-background:new 0 0 101 88;" xml:space="preserve">
<style type="text/css">
	.st0{fill:#FFFFFF;}
</style>
<path class="st0" d="M100.5,69.4L83.8,86.8c-0.4,0.4-0.8,0.7-1.3,0.9C82,87.9,81.5,88,81,88h-79c-0.4,0-0.7-0.1-1.1-0.3
	c-0.3-0.2-0.6-0.5-0.7-0.8C0,86.5,0,86.2,0,85.8c0.1-0.4,0.2-0.7,0.5-1l16.7-17.4c0.4-0.4,0.8-0.7,1.3-0.9c0.5-0.2,1-0.3,1.5-0.3h79
	c0.4,0,0.7,0.1,1.1,0.3c0.3,0.2,0.6,0.5,0.7,0.8c0.2,0.3,0.2,0.7,0.1,1.1S100.7,69.1,100.5,69.4z M83.8,34.3
	c-0.4-0.4-0.8-0.7-1.3-0.9c-0.5-0.2-1-0.3-1.5-0.3h-79c-0.4,0-0.7,0.1-1.1,0.3c-0.3,0.2-0.6,0.5-0.7,0.8C0,34.6,0,34.9,0,35.3
	c0.1,0.4,0.2,0.7,0.5,1l16.7,17.4c0.4,0.4,0.8,0.7,1.3,0.9c0.5,0.2,1,0.3,1.5,0.3h79c0.4,0,0.7-0.1,1.1-0.3c0.3-0.2,0.6-0.5,0.7-0.8
	c0.2-0.3,0.2-0.7,0.1-1.1c-0.1-0.4-0.2-0.7-0.5-1L83.8,34.3z M1.9,21.8h79c0.5,0,1.1-0.1,1.5-0.3c0.5-0.2,0.9-0.5,1.3-0.9l16.7-17.4
	c0.3-0.3,0.4-0.6,0.5-1s0-0.7-0.1-1.1c-0.2-0.3-0.4-0.6-0.7-0.8C99.8,0.1,99.4,0,99.1,0H20c-0.5,0-1.1,0.1-1.5,0.3
	c-0.5,0.2-0.9,0.5-1.3,0.9L0.5,18.6c-0.3,0.3-0.4,0.6-0.5,1c-0.1,0.4,0,0.7,0.1,1.1c0.1,0.3,0.4,0.6,0.7,0.8
	C1.2,21.7,1.6,21.8,1.9,21.8z"/>
</svg>
